<svg xmlns="http://www.w3.org/2000/svg" width="360" height="240" viewBox="0 0 360 240">
  <!-- uneven hand-ruled lines, slightly wobbly + irregular spacing -->
  <g stroke="#4d80a4" stroke-width="1" fill="none" opacity="0.42" stroke-linecap="round">
    <path d="M2 27  Q90 25  178 28  T356 26"/>
    <path d="M3 53  Q92 56  180 53  T357 55"/>
    <path d="M2 81  Q88 78  176 82  T356 80"/>
    <path d="M4 106 Q94 109 182 105 T358 108"/>
    <path d="M3 134 Q90 131 178 135 T356 133"/>
    <path d="M2 160 Q92 163 180 159 T358 162"/>
    <path d="M3 187 Q88 184 176 188 T356 186"/>
    <path d="M4 214 Q94 217 182 213 T358 216"/>
  </g>
  <!-- left red margin, slightly wobbled, ends before bottom -->
  <path d="M28 4 Q26 60 29 120 Q27 180 30 228" stroke="#c64a28" stroke-width="1.4" fill="none" opacity="0.55" stroke-linecap="round"/>
</svg>
